# xmcd
#
# Track frame offsets: 
#        187
#        14392
#        40770
#        62355
#        84995
#        107185
#        127680
#        152350
#        171737
#        192445
#
# Disc length: 2782 seconds
#
# Revision: 1
# Processed by: cddbd v1.5.2PL0 Copyright (c) Steve Scherf et al.
# Submitted via: ExactAudioCopy v1.0b1
#
DISCID=740adc0a
DTITLE=Le Thu - Nuoc mat mua thu
DYEAR=1971
DGENRE=Blues
TTITLE0=Tango Xanh (Hoang Quoc Bao)
TTITLE1=Huong xua (Cung Tien)
TTITLE2=Mua thu chet (Pham Duy)
TTITLE3=Mot mai em di (Truong Sa)
TTITLE4=Nuoc mat mua thu (Pham Duy)
TTITLE5=Ha trang (Trinh Cong Son)
TTITLE6=Roi mai toi dua em (Truong Sa)
TTITLE7=Chieu tim (Dan Tho)
TTITLE8=Mai toc da huong (Nguyen Hien and Dinh Hung)
TTITLE9=Bai Tango cuoi cung (Hoang Ngoc An and Viet Dung)
EXTD=
EXTT0=
EXTT1=
EXTT2=
EXTT3=
EXTT4=
EXTT5=
EXTT6=
EXTT7=
EXTT8=
EXTT9=
PLAYORDER=
